<svg width="1449" height="466" viewBox="0 0 1449 466" fill="none" xmlns="http://www.w3.org/2000/svg">
<path fill-rule="evenodd" clip-rule="evenodd" d="M0 102.128L60.375 76.1366C120.75 50.1458 241.5 -1.83603 362.25 32.8185C483 67.473 603.75 188.764 724.5 240.746C845.25 292.727 966 275.4 1086.75 240.746C1207.5 206.091 1328.25 154.109 1388.62 128.118L1449 102.128V466H1388.62C1328.25 466 1207.5 466 1086.75 466C966 466 845.25 466 724.5 466C603.75 466 483 466 362.25 466C241.5 466 120.75 466 60.375 466H0V102.128Z" fill="#AEC3D1"/>
<path fill-rule="evenodd" clip-rule="evenodd" d="M294.551 341.695L341.864 293.644C391.07 245.593 487.59 146.822 584.109 98.7711C678.736 50.7203 775.256 50.7203 871.775 90.7626C968.295 130.805 1064.81 213.559 1161.33 205.551C1255.96 197.542 1352.48 98.7711 1401.69 50.7203L1449 0V440.466H1401.69C1352.48 440.466 1255.96 440.466 1161.33 440.466C1064.81 440.466 968.295 440.466 871.775 440.466C775.256 440.466 678.736 440.466 584.109 440.466C487.59 440.466 391.07 440.466 341.864 440.466H294.551V341.695Z" fill="#AEC3D1"/>
</svg>
