<svg width="5497" height="1816" viewBox="0 0 5497 1816" fill="none" xmlns="http://www.w3.org/2000/svg">
<path fill-rule="evenodd" clip-rule="evenodd" d="M0 1675L252.981 1438.58C502.186 1202.17 1008.15 729.333 1510.33 414.11C2012.52 98.8879 2518.48 -58.7233 3020.67 20.0823C3522.85 98.888 4028.81 414.11 4278.02 571.722L4531 729.333V1675H4278.02C4028.81 1675 3522.85 1675 3020.67 1675C2518.48 1675 2012.52 1675 1510.33 1675C1008.15 1675 502.186 1675 252.981 1675H0Z" fill="#C1CFD8"/>
<path fill-rule="evenodd" clip-rule="evenodd" d="M5497 383.326L5284.13 280.993C5071.25 178.659 4645.5 -26.009 4219.75 110.436C3794 246.881 3368.25 724.439 2942.5 929.107C2516.75 1133.77 2091 1065.55 1665.25 929.107C1239.5 792.662 813.75 587.994 600.875 485.66L388 383.326V1816H600.875C813.75 1816 1239.5 1816 1665.25 1816C2091 1816 2516.75 1816 2942.5 1816C3368.25 1816 3794 1816 4219.75 1816C4645.5 1816 5071.25 1816 5284.13 1816H5497V383.326Z" fill="#C1CFD8"/>
<path fill-rule="evenodd" clip-rule="evenodd" d="M0 383.326L229.042 280.993C458.083 178.659 916.167 -26.009 1374.25 110.436C1832.33 246.881 2290.42 724.439 2748.5 929.107C3206.58 1133.77 3664.67 1065.55 4122.75 929.107C4580.83 792.662 5038.92 587.994 5267.96 485.66L5497 383.326V1816H5267.96C5038.92 1816 4580.83 1816 4122.75 1816C3664.67 1816 3206.58 1816 2748.5 1816C2290.42 1816 1832.33 1816 1374.25 1816C916.167 1816 458.083 1816 229.042 1816H0V383.326Z" fill="#C1CFD8"/>
</svg>
