<svg width="5659" height="1752" viewBox="0 0 5659 1752" fill="none" xmlns="http://www.w3.org/2000/svg">
<path fill-rule="evenodd" clip-rule="evenodd" d="M644.906 1674.62L867.202 1438.26C1086.18 1201.89 1530.77 729.167 1972.04 414.016C2413.32 98.8654 2857.91 -58.7099 3299.18 20.0778C3740.46 98.8655 4185.05 414.016 4404.03 571.592L4626.32 729.167V1674.62H4404.03C4185.05 1674.62 3740.46 1674.62 3299.18 1674.62C2857.91 1674.62 2413.32 1674.62 1972.04 1674.62C1530.77 1674.62 1086.18 1674.62 867.202 1674.62H644.906Z" fill="#C1CFD8"/>
<path fill-rule="evenodd" clip-rule="evenodd" d="M5659 445.162L5476.43 351.86C5293.86 258.558 4928.72 71.9539 4563.58 196.357C4198.44 320.76 3833.3 756.169 3468.16 942.774C3103.02 1129.38 2737.88 1067.18 2372.74 942.774C2007.6 818.371 1642.46 631.767 1459.89 538.464L1277.32 445.162V1751.39H1459.89C1642.46 1751.39 2007.6 1751.39 2372.74 1751.39C2737.88 1751.39 3103.02 1751.39 3468.16 1751.39C3833.3 1751.39 4198.44 1751.39 4563.58 1751.39C4928.72 1751.39 5293.86 1751.39 5476.43 1751.39H5659V445.162Z" fill="#C1CFD8"/>
<path fill-rule="evenodd" clip-rule="evenodd" d="M0 318.316L225.035 215.986C450.069 113.655 900.138 -91.0062 1350.21 45.4347C1800.28 181.876 2250.35 659.419 2700.42 864.08C3150.48 1068.74 3600.55 1000.52 4050.62 864.08C4500.69 727.639 4950.76 522.978 5175.8 420.647L5400.83 318.316V1750.95H5175.8C4950.76 1750.95 4500.69 1750.95 4050.62 1750.95C3600.55 1750.95 3150.48 1750.95 2700.42 1750.95C2250.35 1750.95 1800.28 1750.95 1350.21 1750.95C900.138 1750.95 450.069 1750.95 225.035 1750.95H0V318.316Z" fill="#C1CFD8"/>
</svg>
