<?xml version="1.0" standalone="no"?>
<svg xmlns:xlink="http://www.w3.org/1999/xlink" id="wave" style="transform:rotate(0deg); transition: 0.3s" viewBox="0 0 1440 490" version="1.1" xmlns="http://www.w3.org/2000/svg"><defs><linearGradient id="sw-gradient-0" x1="0" x2="0" y1="1" y2="0"><stop stop-color="rgba(130.182, 180.919, 220.308, 1)" offset="0%"/><stop stop-color="rgba(100.829, 116.425, 126.959, 1)" offset="100%"/></linearGradient></defs><path style="transform:translate(0, 0px); opacity:1" fill="url(#sw-gradient-0)" d="M0,245L48,228.7C96,212,192,180,288,204.2C384,229,480,310,576,318.5C672,327,768,261,864,245C960,229,1056,261,1152,261.3C1248,261,1344,229,1440,245C1536,261,1632,327,1728,310.3C1824,294,1920,196,2016,171.5C2112,147,2208,196,2304,236.8C2400,278,2496,310,2592,285.8C2688,261,2784,180,2880,155.2C2976,131,3072,163,3168,196C3264,229,3360,261,3456,253.2C3552,245,3648,196,3744,204.2C3840,212,3936,278,4032,253.2C4128,229,4224,114,4320,73.5C4416,33,4512,65,4608,130.7C4704,196,4800,294,4896,302.2C4992,310,5088,229,5184,187.8C5280,147,5376,147,5472,171.5C5568,196,5664,245,5760,245C5856,245,5952,196,6048,171.5C6144,147,6240,147,6336,171.5C6432,196,6528,245,6624,277.7C6720,310,6816,327,6864,334.8L6912,343L6912,490L6864,490C6816,490,6720,490,6624,490C6528,490,6432,490,6336,490C6240,490,6144,490,6048,490C5952,490,5856,490,5760,490C5664,490,5568,490,5472,490C5376,490,5280,490,5184,490C5088,490,4992,490,4896,490C4800,490,4704,490,4608,490C4512,490,4416,490,4320,490C4224,490,4128,490,4032,490C3936,490,3840,490,3744,490C3648,490,3552,490,3456,490C3360,490,3264,490,3168,490C3072,490,2976,490,2880,490C2784,490,2688,490,2592,490C2496,490,2400,490,2304,490C2208,490,2112,490,2016,490C1920,490,1824,490,1728,490C1632,490,1536,490,1440,490C1344,490,1248,490,1152,490C1056,490,960,490,864,490C768,490,672,490,576,490C480,490,384,490,288,490C192,490,96,490,48,490L0,490Z"/></svg>