<?xml version="1.0" standalone="no"?>
<svg xmlns:xlink="http://www.w3.org/1999/xlink" id="wave" style="transform:rotate(0deg); transition: 0.3s" viewBox="0 0 1440 490" version="1.1" xmlns="http://www.w3.org/2000/svg"><defs><linearGradient id="sw-gradient-0" x1="0" x2="0" y1="1" y2="0"><stop stop-color="rgba(72.636, 125.007, 165.665, 1)" offset="0%"/><stop stop-color="rgba(218.355, 240.226, 255, 1)" offset="100%"/></linearGradient></defs><path style="transform:translate(0, 0px); opacity:1" fill="url(#sw-gradient-0)" d="M0,98L48,98C96,98,192,98,288,81.7C384,65,480,33,576,32.7C672,33,768,65,864,114.3C960,163,1056,229,1152,220.5C1248,212,1344,131,1440,147C1536,163,1632,278,1728,294C1824,310,1920,229,2016,179.7C2112,131,2208,114,2304,155.2C2400,196,2496,294,2592,318.5C2688,343,2784,294,2880,277.7C2976,261,3072,278,3168,269.5C3264,261,3360,229,3456,196C3552,163,3648,131,3744,147C3840,163,3936,229,4032,220.5C4128,212,4224,131,4320,98C4416,65,4512,82,4608,106.2C4704,131,4800,163,4896,220.5C4992,278,5088,359,5184,367.5C5280,376,5376,310,5472,285.8C5568,261,5664,278,5760,294C5856,310,5952,327,6048,326.7C6144,327,6240,310,6336,318.5C6432,327,6528,359,6624,367.5C6720,376,6816,359,6864,351.2L6912,343L6912,490L6864,490C6816,490,6720,490,6624,490C6528,490,6432,490,6336,490C6240,490,6144,490,6048,490C5952,490,5856,490,5760,490C5664,490,5568,490,5472,490C5376,490,5280,490,5184,490C5088,490,4992,490,4896,490C4800,490,4704,490,4608,490C4512,490,4416,490,4320,490C4224,490,4128,490,4032,490C3936,490,3840,490,3744,490C3648,490,3552,490,3456,490C3360,490,3264,490,3168,490C3072,490,2976,490,2880,490C2784,490,2688,490,2592,490C2496,490,2400,490,2304,490C2208,490,2112,490,2016,490C1920,490,1824,490,1728,490C1632,490,1536,490,1440,490C1344,490,1248,490,1152,490C1056,490,960,490,864,490C768,490,672,490,576,490C480,490,384,490,288,490C192,490,96,490,48,490L0,490Z"/></svg>