<?xml version="1.0" standalone="no"?>
<svg xmlns:xlink="http://www.w3.org/1999/xlink" id="wave" style="transform:rotate(0deg); transition: 0.3s" viewBox="0 0 1440 490" version="1.1" xmlns="http://www.w3.org/2000/svg"><defs><linearGradient id="sw-gradient-0" x1="0" x2="0" y1="1" y2="0"><stop stop-color="rgba(104.745, 150.576, 186.156, 1)" offset="0%"/><stop stop-color="rgba(102.695, 132.124, 152.004, 1)" offset="100%"/></linearGradient></defs><path style="transform:translate(0, 0px); opacity:1" fill="url(#sw-gradient-0)" d="M0,98L48,106.2C96,114,192,131,288,114.3C384,98,480,49,576,65.3C672,82,768,163,864,171.5C960,180,1056,114,1152,106.2C1248,98,1344,147,1440,155.2C1536,163,1632,131,1728,147C1824,163,1920,229,2016,236.8C2112,245,2208,196,2304,212.3C2400,229,2496,310,2592,294C2688,278,2784,163,2880,138.8C2976,114,3072,180,3168,171.5C3264,163,3360,82,3456,81.7C3552,82,3648,163,3744,204.2C3840,245,3936,245,4032,277.7C4128,310,4224,376,4320,334.8C4416,294,4512,147,4608,73.5C4704,0,4800,0,4896,57.2C4992,114,5088,229,5184,228.7C5280,229,5376,114,5472,98C5568,82,5664,163,5760,204.2C5856,245,5952,245,6048,245C6144,245,6240,245,6336,220.5C6432,196,6528,147,6624,163.3C6720,180,6816,261,6864,302.2L6912,343L6912,490L6864,490C6816,490,6720,490,6624,490C6528,490,6432,490,6336,490C6240,490,6144,490,6048,490C5952,490,5856,490,5760,490C5664,490,5568,490,5472,490C5376,490,5280,490,5184,490C5088,490,4992,490,4896,490C4800,490,4704,490,4608,490C4512,490,4416,490,4320,490C4224,490,4128,490,4032,490C3936,490,3840,490,3744,490C3648,490,3552,490,3456,490C3360,490,3264,490,3168,490C3072,490,2976,490,2880,490C2784,490,2688,490,2592,490C2496,490,2400,490,2304,490C2208,490,2112,490,2016,490C1920,490,1824,490,1728,490C1632,490,1536,490,1440,490C1344,490,1248,490,1152,490C1056,490,960,490,864,490C768,490,672,490,576,490C480,490,384,490,288,490C192,490,96,490,48,490L0,490Z"/></svg>