<?xml version="1.0" standalone="no"?>
<svg xmlns:xlink="http://www.w3.org/1999/xlink" id="wave" style="transform:rotate(180deg); transition: 0.3s" viewBox="0 0 1440 490" version="1.1" xmlns="http://www.w3.org/2000/svg"><defs><linearGradient id="sw-gradient-0" x1="0" x2="0" y1="1" y2="0"><stop stop-color="rgba(144.862, 193.949, 243.986, 1)" offset="0%"/><stop stop-color="rgba(237.156, 237.156, 237.156, 1)" offset="100%"/></linearGradient></defs><path style="transform:translate(0, 0px); opacity:1" fill="url(#sw-gradient-0)" d="M0,392L120,326.7C240,261,480,131,720,130.7C960,131,1200,261,1440,318.5C1680,376,1920,359,2160,367.5C2400,376,2640,408,2880,383.8C3120,359,3360,278,3600,253.2C3840,229,4080,261,4320,236.8C4560,212,4800,131,5040,138.8C5280,147,5520,245,5760,261.3C6000,278,6240,212,6480,155.2C6720,98,6960,49,7200,49C7440,49,7680,98,7920,147C8160,196,8400,245,8640,245C8880,245,9120,196,9360,196C9600,196,9840,245,10080,269.5C10320,294,10560,294,10800,245C11040,196,11280,98,11520,106.2C11760,114,12000,229,12240,302.2C12480,376,12720,408,12960,359.3C13200,310,13440,180,13680,138.8C13920,98,14160,147,14400,187.8C14640,229,14880,261,15120,277.7C15360,294,15600,294,15840,277.7C16080,261,16320,229,16560,228.7C16800,229,17040,261,17160,277.7L17280,294L17280,490L17160,490C17040,490,16800,490,16560,490C16320,490,16080,490,15840,490C15600,490,15360,490,15120,490C14880,490,14640,490,14400,490C14160,490,13920,490,13680,490C13440,490,13200,490,12960,490C12720,490,12480,490,12240,490C12000,490,11760,490,11520,490C11280,490,11040,490,10800,490C10560,490,10320,490,10080,490C9840,490,9600,490,9360,490C9120,490,8880,490,8640,490C8400,490,8160,490,7920,490C7680,490,7440,490,7200,490C6960,490,6720,490,6480,490C6240,490,6000,490,5760,490C5520,490,5280,490,5040,490C4800,490,4560,490,4320,490C4080,490,3840,490,3600,490C3360,490,3120,490,2880,490C2640,490,2400,490,2160,490C1920,490,1680,490,1440,490C1200,490,960,490,720,490C480,490,240,490,120,490L0,490Z"/></svg>